<?xml version="1.0" standalone="no"?>
<!DOCTYPE svg PUBLIC "-//W3C//DTD SVG 20010904//EN"
 "http://www.w3.org/TR/2001/REC-SVG-20010904/DTD/svg10.dtd">
<svg version="1.0" xmlns="http://www.w3.org/2000/svg"
 width="560.000000pt" height="669.000000pt" viewBox="0 0 560.000000 669.000000"
 preserveAspectRatio="xMidYMid meet">
<metadata>
Created by potrace 1.16, written by Peter Selinger 2001-2019
</metadata>
<g transform="translate(0.000000,669.000000) scale(0.100000,-0.100000)"
fill="#000000" stroke="none">
<path d="M0 3345 l0 -3345 2800 0 2800 0 0 3345 0 3345 -2800 0 -2800 0 0
-3345z m4115 2898 c25 -71 57 -158 71 -194 l24 -66 193 -22 c263 -30 243 -21
183 -84 -28 -29 -91 -96 -139 -149 l-88 -96 51 -215 c55 -237 58 -256 35 -237
-8 7 -15 16 -15 21 0 9 -40 66 -190 276 -47 65 -109 154 -138 198 -30 44 -55
81 -56 82 -6 7 -581 173 -599 174 -93 2 249 49 366 49 l52 0 99 195 c55 107
100 195 102 195 1 0 23 -57 49 -127z m-2999 -488 c9 -49 36 -151 61 -224 137
-415 359 -687 929 -1133 415 -326 612 -539 734 -793 75 -158 102 -251 119
-420 31 -306 -79 -643 -318 -965 -91 -124 -165 -210 -220 -255 -29 -24 -24
-13 43 80 103 145 161 284 208 495 32 147 33 413 1 541 -57 227 -145 406 -292
596 -152 197 -294 329 -616 570 -225 169 -279 215 -384 322 -46 47 -79 76 -72
63 7 -12 44 -55 84 -95 39 -40 71 -76 69 -81 -1 -4 2 -14 7 -20 6 -7 9 -22 6
-35 -2 -13 0 -19 6 -15 13 7 5 -56 -8 -65 -11 -8 -15 -31 -5 -31 5 0 14 -12
20 -27 9 -22 9 -24 0 -11 -10 14 -13 15 -23 2 -9 -13 -23 -6 -90 44 -160 119
-324 300 -410 452 -89 157 -126 292 -132 480 -6 157 11 274 58 415 30 87 115
269 161 344 l23 36 12 -90 c7 -50 20 -130 29 -180z m2993 -108 c36 -55 71
-107 76 -116 6 -8 16 -22 23 -30 8 -7 11 -23 8 -33 -2 -11 -2 -17 1 -14 9 8
34 -15 27 -25 -3 -5 0 -9 6 -9 7 0 9 -7 6 -15 -3 -9 1 -18 9 -21 23 -9 30 -63
10 -83 -14 -14 -18 -14 -28 -1 -7 8 -19 16 -27 18 -16 4 -31 23 -25 32 2 4 -2
7 -10 7 -8 0 -11 -5 -8 -11 6 -9 -67 30 -112 61 -11 7 -25 13 -31 13 -6 0 -58
-28 -115 -61 -57 -34 -141 -83 -187 -110 -45 -27 -84 -49 -86 -49 -1 0 2 15 8
34 6 19 13 33 17 30 4 -2 28 31 55 74 97 157 264 397 288 414 16 11 24 1 95
-105z m516 -1409 c7 -7 -1 -76 -55 -463 -65 -463 -112 -840 -185 -1465 -42
-360 -78 -656 -80 -658 -1 -1 -36 15 -76 37 -96 51 -212 94 -357 130 -197 50
-287 62 -498 68 -447 13 -774 -60 -1179 -262 -170 -84 -169 -84 -122 -44 21
17 77 65 125 107 144 124 432 335 554 405 303 176 644 262 903 228 81 -11 189
-37 238 -56 13 -6 17 -2 17 18 0 102 241 1132 401 1716 22 79 38 146 35 148
-8 8 -212 -17 -320 -38 -54 -11 -100 -18 -102 -16 -2 2 4 30 14 63 18 58 18
59 64 66 137 23 604 35 623 16z m226 -296 l24 -10 -11 -298 c-6 -165 -14 -418
-18 -564 -4 -146 -11 -418 -16 -605 -5 -187 -14 -632 -20 -990 -12 -768 -19
-995 -30 -995 -5 0 -54 39 -111 86 -208 174 -366 276 -604 394 -580 285 -1177
376 -1835 280 -224 -33 -317 -56 -559 -136 -123 -41 -225 -73 -227 -71 -9 8
247 136 351 176 61 23 126 49 145 58 116 52 365 123 551 158 565 102 1168 15
1717 -251 170 -81 244 -124 345 -196 38 -27 70 -48 71 -46 1 2 0 38 -2 80 l-4
77 -53 40 c-30 23 -57 41 -61 41 -3 0 -18 9 -33 19 -24 17 -169 92 -261 134
-75 35 -271 100 -400 133 -74 19 -137 38 -140 41 -3 3 7 3 22 -1 16 -3 28 -2
30 5 2 6 16 12 31 12 15 1 27 6 27 11 0 5 7 3 16 -5 10 -8 18 -9 22 -2 6 9 16
10 47 3 21 -5 36 0 30 10 -3 6 3 10 14 10 12 0 21 -5 21 -11 0 -7 9 -9 24 -5
18 4 32 -2 55 -23 17 -16 31 -25 31 -20 0 5 7 9 16 9 9 0 12 5 8 13 -6 9 -4 9
7 1 8 -7 29 -15 46 -19 18 -3 37 -14 43 -23 8 -15 11 -15 19 -2 9 13 12 13 23
-1 7 -9 30 -20 51 -23 20 -4 37 -11 37 -15 0 -5 25 -19 56 -31 31 -13 58 -29
61 -37 3 -7 11 -13 19 -13 8 0 14 -7 14 -15 0 -8 5 -15 10 -15 6 0 9 -5 8 -11
-2 -6 3 -14 11 -17 8 -3 11 0 7 7 -4 6 0 11 9 11 9 0 14 -4 11 -9 -3 -5 3 -11
14 -14 11 -3 27 -20 35 -39 8 -18 15 -26 15 -18 1 10 3 11 7 3 2 -7 -2 -20
-11 -28 -12 -12 -20 -13 -35 -5 -25 13 -31 13 -31 0 0 -5 9 -10 19 -10 11 0
21 -6 24 -12 3 -9 9 -7 20 6 14 19 15 18 34 -19 11 -21 23 -33 26 -28 6 9 14
173 33 621 4 110 10 162 18 162 7 0 8 3 0 8 -7 5 -8 90 -2 277 4 149 15 504
23 790 13 453 37 921 51 964 5 15 67 11 115 -7z"/>
</g>
</svg>
